<svg width="116" height="162" viewBox="0 0 116 162" fill="none" xmlns="http://www.w3.org/2000/svg">
<path d="M65.5671 146.262H50.4368C49.043 146.262 47.9151 147.39 47.9151 148.783V151.305C47.9151 156.868 52.4391 161.392 58.002 161.392C63.5649 161.392 68.0888 156.868 68.0888 151.305V148.783C68.0888 147.39 66.961 146.262 65.5671 146.262Z" fill="#868491"/>
<path d="M57.9995 146.262H50.4368C49.043 146.262 47.9151 147.39 47.9151 148.783V151.305C47.9151 156.867 52.4375 161.39 57.9995 161.392V146.262Z" fill="#5C546A"/>
<path opacity="0.89" d="M97.7104 15.7277C85.9242 4.6508 70.4863 -0.897272 54.2947 0.118346C24.7876 1.95446 0.949557 26.5682 0.0285032 56.1551C-0.651097 78.0773 10.864 98.2607 30.0822 108.833C34.8596 111.463 37.827 116.513 37.827 122.017V141.218C37.827 146.781 42.351 151.305 47.9139 151.305H68.0875C73.6504 151.305 78.1744 146.781 78.1744 141.218V122.017C78.1744 116.519 81.1638 111.455 85.9809 108.801C104.497 98.5857 116 79.1213 116 58.002C116 42.0591 109.334 26.6505 97.7104 15.7277Z" fill="#FFCD00"/>
<path d="M57.9994 98.3493C80.2827 98.3493 98.3468 80.2852 98.3468 58.002C98.3468 35.7188 80.2827 17.6546 57.9994 17.6546C35.7162 17.6546 17.6521 35.7188 17.6521 58.002C17.6521 80.2852 35.7162 98.3493 57.9994 98.3493Z" fill="#FFE671"/>
<path d="M66.8204 73.1322C63.4687 73.1322 61.7549 71.1769 60.5063 69.7509C59.4056 68.4951 58.9671 68.0888 57.9846 68.0888C57.0068 68.0888 56.5712 68.4951 55.4752 69.7487C54.2982 71.0956 52.5176 73.1322 49.1659 73.1322C45.8167 73.1322 44.0364 71.0956 42.8591 69.7487C41.7631 68.4951 41.3275 68.0888 40.3497 68.0888C38.9558 68.0888 37.828 66.961 37.828 65.5671C37.828 64.1732 38.9558 63.0454 40.3497 63.0454C43.6988 63.0454 45.4792 65.082 46.6565 66.4289C47.7525 67.6825 48.1881 68.0888 49.1659 68.0888C50.1437 68.0888 50.5818 67.6825 51.6778 66.4289C52.8548 65.082 54.6355 63.0454 57.9846 63.0454C61.3363 63.0454 63.0501 65.0007 64.2987 66.4267C65.3994 67.6825 65.8378 68.0888 66.8204 68.0888C67.8004 68.0888 68.2388 67.6825 69.3396 66.4289C70.5191 65.082 72.2997 63.0454 75.6536 63.0454C77.0475 63.0454 78.1753 64.1732 78.1753 65.5671C78.1753 66.961 77.0475 68.0888 75.6536 68.0888C74.6711 68.0888 74.2326 68.4951 73.1319 69.7509C71.9524 71.0981 70.172 73.1322 66.8204 73.1322Z" fill="white"/>
<path d="M50.4343 121.045C49.2743 121.045 48.2303 120.239 47.9715 119.06L35.363 61.0605C35.0673 59.6988 35.932 58.3566 37.2912 58.0587C38.6604 57.7583 39.9951 58.6277 40.2929 59.9869L52.9015 117.986C53.1971 119.348 52.3325 120.69 50.9733 120.988C50.7914 121.028 50.6114 121.045 50.4343 121.045Z" fill="#5C546A"/>
<path d="M65.5693 121.045C65.3918 121.045 65.2122 121.027 65.03 120.988C63.6705 120.69 62.8061 119.348 63.1018 117.986L75.7103 59.9869C76.0082 58.6273 77.3381 57.7605 78.7121 58.0587C80.0716 58.3566 80.936 59.6988 80.6403 61.0605L68.0317 119.06C67.7736 120.24 66.7293 121.045 65.5693 121.045Z" fill="#5C546A"/>
<path d="M37.3942 118.523C37.6625 119.656 37.8273 120.822 37.8273 122.017V141.218C37.8273 146.781 42.3513 151.305 47.9142 151.305H68.0878C73.6507 151.305 78.1747 146.781 78.1747 141.218V122.017C78.1747 120.823 78.3408 119.656 78.6109 118.523H37.3942Z" fill="#B4B6BC"/>
<path d="M57.9994 118.523H37.3942C37.6625 119.656 37.8273 120.822 37.8273 122.017V141.218C37.8273 146.781 42.3513 151.305 47.9142 151.305H57.9994V118.523Z" fill="#868491"/>
<path d="M78.1731 126.088H57.9995V131.132H78.1731V126.088Z" fill="#868491"/>
<path d="M78.1744 136.175H58.0007V141.218H78.1744V136.175Z" fill="#868491"/>
<path d="M57.9995 126.088H37.8258V131.132H57.9995V126.088Z" fill="#5C546A"/>
<path d="M57.9995 136.175H37.8258V141.218H57.9995V136.175Z" fill="#5C546A"/>
</svg>
